<?xml version="1.0" encoding="utf-8"?>
<!-- Generator: Adobe Illustrator 23.0.1, SVG Export Plug-In . SVG Version: 6.00 Build 0)  -->
<svg version="1.1" id="Layer_1" xmlns="http://www.w3.org/2000/svg" xmlns:xlink="http://www.w3.org/1999/xlink" x="0px" y="0px"
	 viewBox="0 0 1049 582" style="enable-background:new 0 0 1049 582;" xml:space="preserve">
<style type="text/css">
	.st0{fill:#00385F;}
	.st1{opacity:0.34;}
	.st2{fill:#0C5371;}
	.st3{fill:#188AB2;}
	.st4{fill:#198BB3;}
	.st5{fill:#25BFD6;}
	.st6{fill:#156988;}
	.st7{fill:#2ACDDB;}
	.st8{fill:#1E9FC4;}
	.st9{fill:#42E8E5;}
	.st10{fill:#39E0E5;}
	.st11{fill:#177492;}
	.st12{fill:#075B72;}
	.st13{fill:#094D66;}
	.st14{fill:#166E90;}
	.st15{fill:#0E5D80;}
	.st16{fill:#1FAECC;}
	.st17{fill:#2FCFDD;}
	.st18{fill:#0D5E7C;}
	.st19{fill:#1699B5;}
	.st20{fill:#006472;}
	.st21{fill:#086275;}
	.st22{fill:#0F647C;}
	.st23{fill:#14607F;}
</style>
<rect x="-0.3" y="-0.3" class="st0" width="1049.5" height="582.6"/>
<g class="st1">
	<g>
		<polygon class="st2" points="174.6,655.2 174.6,509.5 174.6,509.5 -0.3,582.3 -0.3,582.3 174.6,655.2 		"/>
		<polygon class="st2" points="174.6,655.2 174.6,509.5 174.6,509.5 -0.3,582.3 -0.3,582.3 174.6,655.2 		"/>
		<polygon class="st2" points="-0.3,436.7 -0.3,582.3 174.6,509.5 		"/>
		<g>
			<polygon class="st3" points="-0.3,436.7 -0.3,582.3 174.6,509.5 			"/>
		</g>
		<polygon class="st2" points="524.5,509.5 349.5,582.3 349.5,582.3 524.5,655.2 524.5,655.1 524.5,509.5 		"/>
		<g>
			<polygon class="st4" points="524.5,509.5 349.5,582.3 349.5,582.3 524.5,655.2 524.5,655.1 524.5,509.5 			"/>
		</g>
		<polygon class="st2" points="174.6,509.5 174.6,509.5 174.6,509.5 		"/>
		<polygon class="st2" points="174.6,509.5 174.6,509.5 174.6,509.5 		"/>
		<polygon class="st2" points="349.5,436.7 349.5,582.3 524.5,509.5 		"/>
		<g>
			<polygon class="st5" points="349.5,436.7 349.5,582.3 524.5,509.5 			"/>
		</g>
		<polygon class="st2" points="174.6,509.5 174.6,363.8 174.6,363.8 -0.3,436.7 -0.3,436.7 174.6,509.5 		"/>
		<g>
			<polygon class="st6" points="174.6,509.5 174.6,363.8 174.6,363.8 -0.3,436.7 -0.3,436.7 174.6,509.5 			"/>
		</g>
		<polygon class="st2" points="-0.3,291 -0.3,436.7 174.6,363.8 		"/>
		<polygon class="st2" points="-0.3,291 -0.3,436.7 174.6,363.8 		"/>
		<polygon class="st2" points="874.3,509.5 699.4,582.3 699.4,582.3 874.3,655.2 874.3,655.2 		"/>
		<g>
			<polygon class="st4" points="874.3,509.5 699.4,582.3 699.4,582.3 874.3,655.2 874.3,655.2 			"/>
		</g>
		<polygon class="st2" points="524.5,509.5 524.5,509.5 524.5,509.5 		"/>
		<polygon class="st2" points="524.5,509.5 524.5,509.5 524.5,509.5 		"/>
		<polygon class="st2" points="699.4,582.3 874.3,509.5 699.4,436.7 		"/>
		<g>
			<polygon class="st7" points="699.4,582.3 874.3,509.5 699.4,436.7 			"/>
		</g>
		<polygon class="st2" points="524.5,509.5 524.5,363.8 524.5,363.8 349.5,436.7 349.5,436.7 		"/>
		<g>
			<polygon class="st8" points="524.5,509.5 524.5,363.8 524.5,363.8 349.5,436.7 349.5,436.7 			"/>
		</g>
		<polygon class="st2" points="349.5,291 349.5,436.7 524.5,363.8 		"/>
		<g>
			<polygon class="st3" points="349.5,291 349.5,436.7 524.5,363.8 			"/>
		</g>
		<polygon class="st2" points="174.6,363.8 174.6,363.8 174.6,363.8 		"/>
		<polygon class="st2" points="174.6,363.8 174.6,363.8 174.6,363.8 		"/>
		<polygon class="st2" points="174.6,363.8 174.6,218.2 174.6,218.2 -0.3,291 -0.3,291 174.6,363.8 		"/>
		<polygon class="st2" points="174.6,363.8 174.6,218.2 174.6,218.2 -0.3,291 -0.3,291 174.6,363.8 		"/>
		<polygon class="st2" points="-0.3,145.4 -0.3,291 174.6,218.2 		"/>
		<polygon class="st2" points="-0.3,145.4 -0.3,291 174.6,218.2 		"/>
		<path class="st2" d="M874.3,509.5L874.3,509.5L874.3,509.5z"/>
		<path class="st2" d="M874.3,509.5L874.3,509.5L874.3,509.5z"/>
		<polygon class="st2" points="874.3,509.5 874.3,509.5 874.3,363.8 874.3,363.8 699.4,436.7 699.4,436.7 		"/>
		<g>
			<polygon class="st9" points="874.3,509.5 874.3,509.5 874.3,363.8 874.3,363.8 699.4,436.7 699.4,436.7 			"/>
		</g>
		<path class="st2" d="M524.5,363.8L524.5,363.8L524.5,363.8z"/>
		<path class="st2" d="M524.5,363.8L524.5,363.8L524.5,363.8z"/>
		<polygon class="st2" points="699.4,291 699.4,436.7 874.3,363.8 		"/>
		<g>
			<polygon class="st10" points="699.4,291 699.4,436.7 874.3,363.8 			"/>
		</g>
		<polygon class="st2" points="524.5,363.8 524.5,363.8 524.5,218.2 524.5,218.2 349.5,291 349.5,291 		"/>
		<g>
			<polygon class="st11" points="524.5,363.8 524.5,363.8 524.5,218.2 524.5,218.2 349.5,291 349.5,291 			"/>
		</g>
		<polygon class="st2" points="174.6,218.2 174.6,218.2 174.6,218.2 		"/>
		<polygon class="st2" points="174.6,218.2 174.6,218.2 174.6,218.2 		"/>
		<polygon class="st2" points="349.5,145.4 349.5,291 524.5,218.2 		"/>
		<g>
			<polygon class="st6" points="349.5,145.4 349.5,291 524.5,218.2 			"/>
		</g>
		<polygon class="st2" points="174.6,218.2 174.6,72.5 174.6,72.5 -0.3,145.3 -0.3,145.4 174.6,218.2 		"/>
		<polygon class="st12" points="174.6,218.2 174.6,72.5 174.6,72.5 -0.3,145.3 -0.3,145.4 174.6,218.2 		"/>
		<polygon class="st2" points="-0.3,-0.3 -0.3,145.3 174.6,72.5 		"/>
		<polygon class="st13" points="-0.3,-0.3 -0.3,145.3 174.6,72.5 		"/>
		<path class="st2" d="M874.3,363.8L874.3,363.8L874.3,363.8z"/>
		<path class="st2" d="M874.3,363.8L874.3,363.8L874.3,363.8z"/>
		<polygon class="st2" points="874.3,363.8 874.3,363.8 874.3,218.2 874.3,218.2 699.4,291 699.4,291 		"/>
		<g>
			<polygon class="st3" points="874.3,363.8 874.3,363.8 874.3,218.2 874.3,218.2 699.4,291 699.4,291 			"/>
		</g>
		<polygon class="st2" points="699.4,145.3 699.4,291 874.3,218.2 		"/>
		<g>
			<polygon class="st3" points="699.4,145.3 699.4,291 874.3,218.2 			"/>
		</g>
		<polygon class="st2" points="524.5,218.2 524.5,218.2 524.5,218.2 		"/>
		<polygon class="st2" points="524.5,218.2 524.5,218.2 524.5,218.2 		"/>
		<polygon class="st2" points="524.5,218.2 524.5,218.2 524.5,72.5 524.5,72.5 349.5,145.3 349.5,145.4 		"/>
		<g>
			<polygon class="st14" points="524.5,218.2 524.5,218.2 524.5,72.5 524.5,72.5 349.5,145.3 349.5,145.4 			"/>
		</g>
		<polygon class="st2" points="349.5,-0.3 349.5,145.3 524.5,72.5 		"/>
		<g>
			<polygon class="st15" points="349.5,-0.3 349.5,145.3 524.5,72.5 			"/>
		</g>
		<polygon class="st2" points="174.6,72.5 174.6,72.5 174.6,72.5 		"/>
		<polygon class="st2" points="174.6,72.5 174.6,72.5 174.6,72.5 		"/>
		<polygon class="st2" points="174.6,72.5 174.6,72.5 174.6,-73.2 174.6,-73.2 -0.3,-0.3 -0.3,-0.3 		"/>
		<g>
			<polygon class="st15" points="174.6,72.5 174.6,72.5 174.6,-73.2 174.6,-73.2 -0.3,-0.3 -0.3,-0.3 			"/>
		</g>
		<path class="st2" d="M874.3,218.2L874.3,218.2L874.3,218.2z"/>
		<path class="st2" d="M874.3,218.2L874.3,218.2L874.3,218.2z"/>
		<polygon class="st2" points="874.3,218.2 874.3,218.2 874.3,72.5 874.3,72.5 699.4,145.3 699.4,145.3 		"/>
		<g>
			<polygon class="st16" points="874.3,218.2 874.3,218.2 874.3,72.5 874.3,72.5 699.4,145.3 699.4,145.3 			"/>
		</g>
		<polygon class="st2" points="699.4,-0.3 699.4,145.3 874.3,72.5 		"/>
		<g>
			<polygon class="st11" points="699.4,-0.3 699.4,145.3 874.3,72.5 			"/>
		</g>
		<path class="st2" d="M524.5,72.5L524.5,72.5L524.5,72.5z"/>
		<path class="st2" d="M524.5,72.5L524.5,72.5L524.5,72.5z"/>
		<polygon class="st2" points="524.5,72.5 524.5,72.5 524.5,-73.1 524.5,-73.2 349.5,-0.3 349.5,-0.3 		"/>
		<g>
			<polygon class="st4" points="524.5,72.5 524.5,72.5 524.5,-73.1 524.5,-73.2 349.5,-0.3 349.5,-0.3 			"/>
		</g>
		<path class="st2" d="M874.3,72.5L874.3,72.5L874.3,72.5z"/>
		<path class="st2" d="M874.3,72.5L874.3,72.5L874.3,72.5z"/>
		<polygon class="st2" points="874.3,72.5 874.3,72.5 874.3,-73.2 874.3,-73.2 699.4,-0.3 699.4,-0.3 		"/>
		<g>
			<polygon class="st4" points="874.3,72.5 874.3,72.5 874.3,-73.2 874.3,-73.2 699.4,-0.3 699.4,-0.3 			"/>
		</g>
		<polygon class="st2" points="874.3,655.2 1049.2,582.3 874.3,509.5 		"/>
		<polygon class="st2" points="874.3,655.2 1049.2,582.3 874.3,509.5 		"/>
		<g>
			<polygon class="st16" points="874.3,655.2 1049.2,582.3 874.3,509.5 			"/>
		</g>
		<polygon class="st2" points="1049.2,436.7 874.3,509.5 874.3,509.5 1049.2,582.3 1049.2,582.3 1049.2,436.7 		"/>
		<polygon class="st2" points="1049.2,436.7 874.3,509.5 874.3,509.5 1049.2,582.3 1049.2,582.3 1049.2,436.7 		"/>
		<g>
			<polygon class="st16" points="1049.2,436.7 874.3,509.5 874.3,509.5 1049.2,582.3 1049.2,582.3 1049.2,436.7 			"/>
		</g>
		<polygon class="st2" points="1049.2,436.7 874.3,363.8 874.3,509.5 		"/>
		<polygon class="st2" points="1049.2,436.7 874.3,363.8 874.3,509.5 		"/>
		<g>
			<polygon class="st17" points="1049.2,436.7 874.3,363.8 874.3,509.5 			"/>
		</g>
		<polygon class="st2" points="874.3,363.8 1049.2,436.7 1049.2,436.7 1049.2,291 1049.2,291 		"/>
		<polygon class="st2" points="874.3,363.8 1049.2,436.7 1049.2,436.7 1049.2,291 1049.2,291 		"/>
		<polygon class="st2" points="874.3,363.8 1049.2,436.7 1049.2,436.7 1049.2,291 1049.2,291 		"/>
		<polygon class="st2" points="1049.2,291 874.3,218.2 874.3,363.8 		"/>
		<polygon class="st2" points="1049.2,291 874.3,218.2 874.3,363.8 		"/>
		<polygon class="st18" points="1049.2,291 874.3,218.2 874.3,363.8 		"/>
		<polygon class="st2" points="874.3,218.2 1049.2,291 1049.2,291 1049.2,145.3 1049.2,145.3 		"/>
		<polygon class="st2" points="874.3,218.2 1049.2,291 1049.2,291 1049.2,145.3 1049.2,145.3 		"/>
		<polygon class="st2" points="874.3,218.2 1049.2,291 1049.2,291 1049.2,145.3 1049.2,145.3 		"/>
		<polygon class="st2" points="1049.2,145.3 874.3,72.5 874.3,218.2 		"/>
		<polygon class="st2" points="1049.2,145.3 874.3,72.5 874.3,218.2 		"/>
		<g>
			<polygon class="st5" points="1049.2,145.3 874.3,72.5 874.3,218.2 			"/>
		</g>
		<polygon class="st2" points="874.3,72.5 1049.2,145.3 1049.2,145.3 1049.2,-0.3 1049.2,-0.3 		"/>
		<polygon class="st2" points="874.3,72.5 1049.2,145.3 1049.2,145.3 1049.2,-0.3 1049.2,-0.3 		"/>
		<polygon class="st13" points="874.3,72.5 1049.2,145.3 1049.2,145.3 1049.2,-0.3 1049.2,-0.3 		"/>
		<polygon class="st2" points="1049.2,-0.3 874.3,-73.2 874.3,72.5 		"/>
		<polygon class="st2" points="1049.2,-0.3 874.3,-73.2 874.3,72.5 		"/>
		<g>
			<polygon class="st16" points="1049.2,-0.3 874.3,-73.2 874.3,72.5 			"/>
		</g>
		<polygon class="st2" points="524.5,655.1 699.4,582.3 524.5,509.5 		"/>
		<polygon class="st2" points="524.5,655.1 699.4,582.3 524.5,509.5 		"/>
		<g>
			<polygon class="st5" points="524.5,655.1 699.4,582.3 524.5,509.5 			"/>
		</g>
		<polygon class="st2" points="699.4,436.7 699.4,436.7 524.5,509.5 524.5,509.5 699.4,582.3 699.4,582.3 		"/>
		<polygon class="st2" points="699.4,436.7 699.4,436.7 524.5,509.5 524.5,509.5 699.4,582.3 699.4,582.3 		"/>
		<g>
			<polygon class="st5" points="699.4,436.7 699.4,436.7 524.5,509.5 524.5,509.5 699.4,582.3 699.4,582.3 			"/>
		</g>
		<polygon class="st2" points="699.4,436.7 524.5,363.8 524.5,509.5 		"/>
		<polygon class="st2" points="699.4,436.7 524.5,363.8 524.5,509.5 		"/>
		<g>
			<polygon class="st16" points="699.4,436.7 524.5,363.8 524.5,509.5 			"/>
		</g>
		<path class="st2" d="M699.4,436.7L699.4,436.7L699.4,436.7z"/>
		<path class="st2" d="M699.4,436.7L699.4,436.7L699.4,436.7z"/>
		<path class="st2" d="M699.4,436.7L699.4,436.7L699.4,436.7z"/>
		<polygon class="st2" points="524.5,363.8 699.4,436.7 699.4,436.7 699.4,291 699.4,291 		"/>
		<polygon class="st2" points="524.5,363.8 699.4,436.7 699.4,436.7 699.4,291 699.4,291 		"/>
		<g>
			<polygon class="st8" points="524.5,363.8 699.4,436.7 699.4,436.7 699.4,291 699.4,291 			"/>
		</g>
		<polygon class="st2" points="699.4,291 524.5,218.2 524.5,363.8 		"/>
		<polygon class="st2" points="699.4,291 524.5,218.2 524.5,363.8 		"/>
		<g>
			<polygon class="st4" points="699.4,291 524.5,218.2 524.5,363.8 			"/>
		</g>
		<path class="st2" d="M699.4,291L699.4,291L699.4,291z"/>
		<path class="st2" d="M699.4,291L699.4,291L699.4,291z"/>
		<path class="st2" d="M699.4,291L699.4,291L699.4,291z"/>
		<polygon class="st2" points="524.5,218.2 699.4,291 699.4,291 699.4,145.3 699.4,145.3 524.5,218.2 		"/>
		<polygon class="st2" points="524.5,218.2 699.4,291 699.4,291 699.4,145.3 699.4,145.3 524.5,218.2 		"/>
		<g>
			<polygon class="st16" points="524.5,218.2 699.4,291 699.4,291 699.4,145.3 699.4,145.3 524.5,218.2 			"/>
		</g>
		<polygon class="st2" points="699.4,145.3 524.5,72.5 524.5,218.2 		"/>
		<polygon class="st2" points="699.4,145.3 524.5,72.5 524.5,218.2 		"/>
		<g>
			<polygon class="st19" points="699.4,145.3 524.5,72.5 524.5,218.2 			"/>
		</g>
		<path class="st2" d="M699.4,145.3L699.4,145.3L699.4,145.3z"/>
		<path class="st2" d="M699.4,145.3L699.4,145.3L699.4,145.3z"/>
		<path class="st2" d="M699.4,145.3L699.4,145.3L699.4,145.3z"/>
		<polygon class="st2" points="524.5,72.5 699.4,145.3 699.4,145.3 699.4,-0.3 699.4,-0.3 		"/>
		<polygon class="st2" points="524.5,72.5 699.4,145.3 699.4,145.3 699.4,-0.3 699.4,-0.3 		"/>
		<g>
			<polygon class="st8" points="524.5,72.5 699.4,145.3 699.4,145.3 699.4,-0.3 699.4,-0.3 			"/>
		</g>
		<polygon class="st2" points="699.4,-0.3 524.5,-73.1 524.5,72.5 		"/>
		<polygon class="st2" points="699.4,-0.3 524.5,-73.1 524.5,72.5 		"/>
		<g>
			<polygon class="st5" points="699.4,-0.3 524.5,-73.1 524.5,72.5 			"/>
		</g>
		<polygon class="st2" points="174.6,509.5 174.6,655.2 349.5,582.3 		"/>
		<polygon class="st2" points="174.6,509.5 174.6,655.2 349.5,582.3 		"/>
		<polygon class="st20" points="174.6,509.5 174.6,655.2 349.5,582.3 		"/>
		<polygon class="st2" points="349.5,582.3 349.5,436.7 349.5,436.7 174.6,509.5 174.6,509.5 349.5,582.3 		"/>
		<polygon class="st2" points="349.5,582.3 349.5,436.7 349.5,436.7 174.6,509.5 174.6,509.5 349.5,582.3 		"/>
		<g>
			<polygon class="st3" points="349.5,582.3 349.5,436.7 349.5,436.7 174.6,509.5 174.6,509.5 349.5,582.3 			"/>
		</g>
		<polygon class="st2" points="174.6,363.8 174.6,509.5 349.5,436.7 		"/>
		<polygon class="st2" points="174.6,363.8 174.6,509.5 349.5,436.7 		"/>
		<g>
			<polygon class="st21" points="174.6,363.8 174.6,509.5 349.5,436.7 			"/>
		</g>
		<polygon class="st2" points="349.5,436.7 349.5,436.7 349.5,436.7 		"/>
		<polygon class="st2" points="349.5,436.7 349.5,436.7 349.5,436.7 		"/>
		<polygon class="st2" points="349.5,436.7 349.5,436.7 349.5,436.7 		"/>
		<polygon class="st2" points="349.5,436.7 349.5,291 349.5,291 174.6,363.8 174.6,363.8 349.5,436.7 		"/>
		<polygon class="st2" points="349.5,436.7 349.5,291 349.5,291 174.6,363.8 174.6,363.8 349.5,436.7 		"/>
		<g>
			<polygon class="st6" points="349.5,436.7 349.5,291 349.5,291 174.6,363.8 174.6,363.8 349.5,436.7 			"/>
		</g>
		<polygon class="st2" points="174.6,218.2 174.6,363.8 349.5,291 		"/>
		<polygon class="st2" points="174.6,218.2 174.6,363.8 349.5,291 		"/>
		<polygon class="st18" points="174.6,218.2 174.6,363.8 349.5,291 		"/>
		<path class="st2" d="M349.5,291L349.5,291L349.5,291z"/>
		<path class="st2" d="M349.5,291L349.5,291L349.5,291z"/>
		<path class="st2" d="M349.5,291L349.5,291L349.5,291z"/>
		<polygon class="st2" points="174.6,218.2 349.5,291 349.5,291 349.5,145.4 349.5,145.3 174.6,218.2 		"/>
		<polygon class="st2" points="174.6,218.2 349.5,291 349.5,291 349.5,145.4 349.5,145.3 174.6,218.2 		"/>
		<g>
			<polygon class="st22" points="174.6,218.2 349.5,291 349.5,291 349.5,145.4 349.5,145.3 174.6,218.2 			"/>
		</g>
		<polygon class="st2" points="349.5,145.3 174.6,72.5 174.6,218.2 		"/>
		<polygon class="st2" points="349.5,145.3 174.6,72.5 174.6,218.2 		"/>
		<polygon class="st18" points="349.5,145.3 174.6,72.5 174.6,218.2 		"/>
		<polygon class="st2" points="349.5,145.3 349.5,145.3 349.5,145.4 		"/>
		<polygon class="st2" points="349.5,145.3 349.5,145.3 349.5,145.4 		"/>
		<polygon class="st2" points="349.5,145.3 349.5,145.3 349.5,145.4 		"/>
		<polygon class="st2" points="174.6,72.5 349.5,145.3 349.5,145.3 349.5,-0.3 349.5,-0.3 174.6,72.5 		"/>
		<polygon class="st2" points="174.6,72.5 349.5,145.3 349.5,145.3 349.5,-0.3 349.5,-0.3 174.6,72.5 		"/>
		<g>
			<polygon class="st23" points="174.6,72.5 349.5,145.3 349.5,145.3 349.5,-0.3 349.5,-0.3 174.6,72.5 			"/>
		</g>
		<polygon class="st2" points="349.5,-0.3 174.6,-73.2 174.6,72.5 		"/>
		<polygon class="st2" points="349.5,-0.3 174.6,-73.2 174.6,72.5 		"/>
		<polygon class="st20" points="349.5,-0.3 174.6,-73.2 174.6,72.5 		"/>
	</g>
</g>
</svg>
